<svg width="24" height="24" viewBox="0 0 24 24" fill="none" xmlns="http://www.w3.org/2000/svg">
<path d="M8.19067 0H2.476C1.10854 0 0 1.10854 0 2.476V8.19067C0 9.55812 1.10854 10.6667 2.476 10.6667H8.19067C9.55812 10.6667 10.6667 9.55812 10.6667 8.19067V2.476C10.6667 1.10854 9.55812 0 8.19067 0Z" fill="#0E2023"/>
<path d="M21.524 0H15.8093C14.4419 0 13.3333 1.10854 13.3333 2.476V8.19067C13.3333 9.55812 14.4419 10.6667 15.8093 10.6667H21.524C22.8915 10.6667 24 9.55812 24 8.19067V2.476C24 1.10854 22.8915 0 21.524 0Z" fill="#0E2023"/>
<path d="M8.19067 13.3333H2.476C1.10854 13.3333 0 14.4419 0 15.8093V21.524C0 22.8915 1.10854 24 2.476 24H8.19067C9.55812 24 10.6667 22.8915 10.6667 21.524V15.8093C10.6667 14.4419 9.55812 13.3333 8.19067 13.3333Z" fill="#0E2023"/>
<path d="M21.524 13.3333H15.8093C14.4419 13.3333 13.3333 14.4419 13.3333 15.8093V21.524C13.3333 22.8915 14.4419 24 15.8093 24H21.524C22.8915 24 24 22.8915 24 21.524V15.8093C24 14.4419 22.8915 13.3333 21.524 13.3333Z" fill="#0E2023"/>
</svg>
