<svg width="60" height="60" viewBox="0 0 60 60" fill="none" xmlns="http://www.w3.org/2000/svg">
<g clip-path="url(#clip0_165_145)">
<path d="M34.3093 2.79272e-06C34.3093 18.9485 18.9485 34.3093 0 34.3093L2.7927e-06 8C3.2617e-06 3.58173 3.58172 -4.69e-07 7.99999 0L34.3093 2.79272e-06Z" fill="#EFF0F5"/>
<path d="M59.9998 52C59.9998 56.4185 56.4178 60 51.9998 60H25.6904C25.6904 41.2224 41.222 25.6908 59.9998 25.6908V52Z" fill="#EFF0F5"/>
<path d="M5.75e-07 25.6908C18.9485 25.6908 34.3093 41.0516 34.3093 60H7.99999C3.58172 60 -9.66e-08 56.4185 0 52L5.75e-07 25.6908Z" fill="#1FB67C"/>
<path d="M51.9998 5.775e-07C56.4178 6.745e-07 59.9998 3.58172 59.9998 7.99999V34.3093C41.0512 34.3093 25.6904 18.9485 25.6904 0L51.9998 5.775e-07Z" fill="#1FB67C"/>
<g style="mix-blend-mode:multiply">
<path d="M34.3093 2.79272e-06C34.3093 18.9485 18.9485 34.3093 0 34.3093L2.7927e-06 8C3.2617e-06 3.58173 3.58172 -4.69e-07 7.99999 0L34.3093 2.79272e-06Z" fill="#263EAC"/>
</g>
<g style="mix-blend-mode:multiply">
<path d="M59.9998 52C59.9998 56.4185 56.4178 60 51.9998 60H25.6904C25.6904 41.2224 41.222 25.6908 59.9998 25.6908V52Z" fill="#263EAC"/>
</g>
</g>
<defs>
<clipPath id="clip0_165_145">
<rect width="60" height="60" fill="white"/>
</clipPath>
</defs>
</svg>
