<svg width="24" height="24" viewBox="0 0 24 24" fill="none" xmlns="http://www.w3.org/2000/svg">
<path d="M12 0C9.62663 0 7.30655 0.703788 5.33316 2.02236C3.35977 3.34094 1.8217 5.21508 0.913451 7.4078C0.00519941 9.60051 -0.232441 12.0133 0.230582 14.3411C0.693605 16.6689 1.83649 18.807 3.51472 20.4853C5.19295 22.1635 7.33115 23.3064 9.65892 23.7694C11.9867 24.2324 14.3995 23.9948 16.5922 23.0865C18.7849 22.1783 20.6591 20.6402 21.9776 18.6668C23.2962 16.6934 24 14.3734 24 12C23.9965 8.81847 22.7311 5.76826 20.4814 3.51858C18.2317 1.2689 15.1815 0.00349392 12 0ZM12 19.2C11.7627 19.2 11.5307 19.1296 11.3333 18.9978C11.136 18.8659 10.9822 18.6785 10.8913 18.4592C10.8005 18.2399 10.7768 17.9987 10.8231 17.7659C10.8694 17.5331 10.9837 17.3193 11.1515 17.1515C11.3193 16.9836 11.5331 16.8694 11.7659 16.8231C11.9987 16.7768 12.24 16.8005 12.4592 16.8913C12.6785 16.9822 12.8659 17.136 12.9978 17.3333C13.1296 17.5306 13.2 17.7627 13.2 18C13.2 18.3183 13.0736 18.6235 12.8485 18.8485C12.6235 19.0736 12.3183 19.2 12 19.2ZM13.2 13.7592V14.4C13.2 14.7183 13.0736 15.0235 12.8485 15.2485C12.6235 15.4736 12.3183 15.6 12 15.6C11.6817 15.6 11.3765 15.4736 11.1515 15.2485C10.9264 15.0235 10.8 14.7183 10.8 14.4V12.6984C10.8 12.5368 10.8326 12.3769 10.8959 12.2282C10.9592 12.0795 11.0519 11.9452 11.1684 11.8332C11.284 11.7205 11.4215 11.6328 11.5724 11.5754C11.7233 11.518 11.8843 11.4922 12.0456 11.4996C12.2776 11.508 12.5089 11.4695 12.7256 11.3862C12.9424 11.303 13.14 11.1769 13.3068 11.0154C13.4736 10.8539 13.606 10.6604 13.6961 10.4464C13.7862 10.2325 13.8322 10.0025 13.8312 9.7704C13.8497 9.29301 13.6777 8.82784 13.3532 8.47722C13.0287 8.1266 12.5782 7.91926 12.1008 7.9008C11.6234 7.88234 11.1582 8.05428 10.8076 8.37879C10.457 8.7033 10.2497 9.15381 10.2312 9.6312C10.2274 9.78932 10.1919 9.94508 10.1269 10.0893C10.0619 10.2335 9.9686 10.3631 9.85259 10.4706C9.73657 10.5782 9.60018 10.6613 9.45147 10.7152C9.30276 10.7691 9.14476 10.7926 8.9868 10.7844C8.6691 10.7719 8.36935 10.6338 8.15336 10.4005C7.93736 10.1672 7.82279 9.85771 7.8348 9.54C7.86887 8.76833 8.11508 8.02101 8.54636 7.3802C8.97763 6.7394 9.57727 6.22993 10.2793 5.90784C10.9814 5.58574 11.7587 5.46349 12.5257 5.55452C13.2927 5.64555 14.0198 5.94634 14.627 6.42381C15.2341 6.90129 15.6979 7.53695 15.9672 8.2609C16.2365 8.98485 16.3009 9.76904 16.1534 10.5272C16.0059 11.2854 15.6522 11.9883 15.1312 12.5585C14.6101 13.1287 13.9419 13.5442 13.2 13.7592Z" fill="white"/>
</svg>
