<svg width="20" height="24" viewBox="0 0 20 24" fill="none" xmlns="http://www.w3.org/2000/svg">
<path d="M6.25011 6V0.156C5.64017 0.317975 5.08371 0.627435 4.63391 1.0548L1.09901 4.4484C0.654739 4.88087 0.332535 5.41486 0.162787 6H6.25011Z" fill="#0E2023"/>
<path d="M17.5823 0H8.75004V6C8.75004 6.63652 8.48665 7.24697 8.01782 7.69706C7.549 8.14714 6.91313 8.4 6.25011 8.4H0.00029213V21.6C-0.0097427 22.2258 0.239102 22.8298 0.692266 23.2797C1.14543 23.7296 1.76593 23.9886 2.41772 24H17.5823C18.2341 23.9886 18.8546 23.7296 19.3077 23.2797C19.7609 22.8298 20.0097 22.2258 19.9997 21.6V2.4C20.0097 1.77423 19.7609 1.17018 19.3077 0.720285C18.8546 0.270388 18.2341 0.0113625 17.5823 0ZM13.8324 18H6.03512C5.7036 18 5.38567 17.8736 5.15126 17.6485C4.91684 17.4235 4.78515 17.1183 4.78515 16.8C4.78515 16.4817 4.91684 16.1765 5.15126 15.9515C5.38567 15.7264 5.7036 15.6 6.03512 15.6H13.8324C14.1639 15.6 14.4818 15.7264 14.7162 15.9515C14.9507 16.1765 15.0824 16.4817 15.0824 16.8C15.0824 17.1183 14.9507 17.4235 14.7162 17.6485C14.4818 17.8736 14.1639 18 13.8324 18ZM13.8324 13.2H6.03512C5.7036 13.2 5.38567 13.0736 5.15126 12.8485C4.91684 12.6235 4.78515 12.3183 4.78515 12C4.78515 11.6817 4.91684 11.3765 5.15126 11.1515C5.38567 10.9264 5.7036 10.8 6.03512 10.8H13.8324C14.1639 10.8 14.4818 10.9264 14.7162 11.1515C14.9507 11.3765 15.0824 11.6817 15.0824 12C15.0824 12.3183 14.9507 12.6235 14.7162 12.8485C14.4818 13.0736 14.1639 13.2 13.8324 13.2Z" fill="#0E2023"/>
</svg>
